# xmcd
#
# Track frame offsets: 
#        150
#        90751
#        135377
#        212403
#
# Disc length: 3522 seconds
#
# Revision: 1
# Processed by: cddbd v1.5.2PL0 Copyright (c) Steve Scherf et al.
# Submitted via: ExactAudioCopy v1.3
#
DISCID=230dc004
DTITLE=Begum Akhtar - Khazana - Concert 2
DYEAR=1900
DGENRE=Gazal
TTITLE0=Dekhe Bina Naahi Chain
TTITLE1=Woh Adaayein Dil Bairiyon Ki
TTITLE2=Ankhon Se Door
TTITLE3=Is Chand se Woh Aaj
EXTD=
EXTT0=
EXTT1=
EXTT2=
EXTT3=
PLAYORDER=
